<svg data-v-d3f97b9e="" xmlns="http://www.w3.org/2000/svg" viewBox="0 0 462 90"><!----><!----><!----><g data-v-d3f97b9e="" id="f303a4ff-3c18-4a74-85de-5967cde566c0" fill="#000000" transform="matrix(5.258545398712158,0,0,5.258545398712158,127.73580169677734,-0.4601273834705353)"><path d="M0.56 12.42L0.56 12.42L0.56 12.42Q0.56 11.93 0.66 11.55L0.66 11.55L0.66 11.55Q0.76 11.17 0.98 10.92L0.98 10.92L0.98 10.92Q1.20 10.67 1.43 10.50L1.43 10.50L1.43 10.50Q1.65 10.33 2.06 10.21L2.06 10.21L2.06 10.21Q2.48 10.09 2.78 10.03L2.78 10.03L2.78 10.03Q3.08 9.97 3.63 9.86L3.63 9.86L3.63 9.86Q4.17 9.76 4.51 9.69L4.51 9.69L4.51 9.69Q4.51 9.49 4.51 9.20L4.51 9.20L4.51 9.20Q4.52 8.90 4.52 8.85L4.52 8.85L4.52 8.85Q4.52 8.20 4.06 7.92L4.06 7.92L4.06 7.92Q3.60 7.64 3.00 7.64L3.00 7.64L3.00 7.64Q2.30 7.64 2.04 7.97L2.04 7.97L2.04 7.97Q1.79 8.30 1.50 9.38L1.50 9.38L0.92 9.32L0.92 9.32Q0.92 9.28 0.93 9.04L0.93 9.04L0.93 9.04Q0.94 8.79 0.97 8.60L0.97 8.60L0.97 8.60Q1.01 8.41 1.08 8.12L1.08 8.12L1.08 8.12Q1.16 7.83 1.35 7.61L1.35 7.61L1.35 7.61Q1.54 7.39 1.82 7.18L1.82 7.18L1.82 7.18Q2.10 6.97 2.56 6.86L2.56 6.86L2.56 6.86Q3.02 6.75 3.63 6.75L3.63 6.75L3.63 6.75Q4.24 6.75 4.68 6.89L4.68 6.89L4.68 6.89Q5.11 7.03 5.33 7.20L5.33 7.20L5.33 7.20Q5.54 7.38 5.66 7.68L5.66 7.68L5.66 7.68Q5.78 7.98 5.80 8.16L5.80 8.16L5.80 8.16Q5.81 8.34 5.81 8.62L5.81 8.62L5.81 8.62Q5.81 9.69 5.78 10.90L5.78 10.90L5.78 10.90Q5.75 12.11 5.75 12.32L5.75 12.32L5.75 12.32Q5.75 12.67 6.07 13.17L6.07 13.17L6.07 13.17Q6.38 13.66 6.38 13.75L6.38 13.75L6.38 13.75Q6.38 13.82 6.26 13.86L6.26 13.86L6.26 13.86Q5.28 14.18 5.18 14.18L5.18 14.18L5.18 14.18Q5.04 14.18 4.92 13.98L4.92 13.98L4.92 13.98Q4.80 13.78 4.70 13.48L4.70 13.48L4.70 13.48Q4.61 13.19 4.59 13.17L4.59 13.17L4.59 13.17Q4.38 13.31 4.07 13.52L4.07 13.52L4.07 13.52Q3.77 13.73 3.65 13.81L3.65 13.81L3.65 13.81Q3.53 13.89 3.31 14L3.31 14L3.31 14Q3.09 14.11 2.93 14.15L2.93 14.15L2.93 14.15Q2.76 14.20 2.51 14.22L2.51 14.22L2.51 14.22Q2.25 14.25 1.93 14.25L1.93 14.25L1.93 14.25Q1.20 14.25 0.88 13.72L0.88 13.72L0.88 13.72Q0.56 13.19 0.56 12.42ZM1.82 12.28L1.82 12.28L1.82 12.28Q1.82 13.31 2.76 13.31L2.76 13.31L2.76 13.31Q3.58 13.31 4.42 12.61L4.42 12.61L4.42 12.61Q4.52 12.53 4.52 11.42L4.52 11.42L4.52 11.42Q4.52 10.65 4.51 10.23L4.51 10.23L4.51 10.23Q4.26 10.32 3.87 10.44L3.87 10.44L3.87 10.44Q3.49 10.57 3.33 10.63L3.33 10.63L3.33 10.63Q3.16 10.68 2.90 10.77L2.90 10.77L2.90 10.77Q2.63 10.86 2.54 10.92L2.54 10.92L2.54 10.92Q2.45 10.98 2.29 11.06L2.29 11.06L2.29 11.06Q2.13 11.14 2.09 11.22L2.09 11.22L2.09 11.22Q2.04 11.30 1.96 11.40L1.96 11.40L1.96 11.40Q1.88 11.51 1.86 11.64L1.86 11.64L1.86 11.64Q1.85 11.77 1.83 11.92L1.83 11.92L1.83 11.92Q1.82 12.07 1.82 12.28ZM7.32 9.10L7.32 9.10L7.32 9.10Q7.32 8.43 7.56 8.06L7.56 8.06L7.56 8.06Q8.06 7.25 8.51 7.01L8.51 7.01L8.51 7.01Q8.96 6.76 9.84 6.76L9.84 6.76L9.84 6.76Q10.36 6.76 10.92 7L10.92 7L10.92 7Q11.07 7.06 11.15 7.10L11.15 7.10L11.15 7.10Q11.23 7.15 11.31 7.30L11.31 7.30L11.31 7.30Q11.40 7.45 11.40 7.69L11.40 7.69L11.40 7.69Q11.40 7.73 11.38 7.90L11.38 7.90L11.38 7.90Q11.37 8.08 11.36 8.39L11.36 8.39L11.36 8.39Q11.35 8.69 11.35 9.06L11.35 9.06L10.84 9.06L10.84 9.06Q10.82 8.88 10.72 8.53L10.72 8.53L10.72 8.53Q10.61 8.18 10.49 7.99L10.49 7.99L10.49 7.99Q10.21 7.59 9.44 7.59L9.44 7.59L9.44 7.59Q9.06 7.59 8.81 7.69L8.81 7.69L8.81 7.69Q8.55 7.80 8.45 7.96L8.45 7.96L8.45 7.96Q8.34 8.12 8.30 8.25L8.30 8.25L8.30 8.25Q8.26 8.39 8.26 8.51L8.26 8.51L8.26 8.51Q8.26 8.96 8.61 9.23L8.61 9.23L8.61 9.23Q8.96 9.51 9.46 9.67L9.46 9.67L9.46 9.67Q9.97 9.84 10.48 10.04L10.48 10.04L10.48 10.04Q10.99 10.25 11.34 10.72L11.34 10.72L11.34 10.72Q11.69 11.19 11.69 11.90L11.69 11.90L11.69 11.90Q11.69 12.64 11.48 12.99L11.48 12.99L11.48 12.99Q11.10 13.59 10.58 14L10.58 14L10.58 14Q10.37 14.15 9.93 14.25L9.93 14.25L9.93 14.25Q9.48 14.35 9.25 14.35L9.25 14.35L9.25 14.35Q7.76 14.35 7.46 13.85L7.46 13.85L7.46 13.85Q7.35 13.66 7.35 13.37L7.35 13.37L7.35 13.37Q7.35 12.24 7.41 11.98L7.41 11.98L7.41 11.98Q7.48 11.72 7.73 11.72L7.73 11.72L7.73 11.72Q7.94 11.72 7.99 11.91L7.99 11.91L7.99 11.91Q8.05 12.11 8.10 12.45L8.10 12.45L8.10 12.45Q8.15 12.80 8.30 13.01L8.30 13.01L8.30 13.01Q8.62 13.45 9.46 13.45L9.46 13.45L9.46 13.45Q10.08 13.45 10.43 13.17L10.43 13.17L10.43 13.17Q10.78 12.89 10.78 12.40L10.78 12.40L10.78 12.40Q10.78 11.93 10.42 11.65L10.42 11.65L10.42 11.65Q10.07 11.37 9.55 11.21L9.55 11.21L9.55 11.21Q9.04 11.05 8.54 10.86L8.54 10.86L8.54 10.86Q8.04 10.67 7.68 10.23L7.68 10.23L7.68 10.23Q7.32 9.80 7.32 9.10ZM13.47 7.84L12.25 7.84L12.25 7.42L13.47 7.18L13.47 5.89L13.47 5.89Q14.28 5.66 14.50 5.57L14.50 5.57L14.50 5.57Q14.53 5.56 14.55 5.56L14.55 5.56L14.55 5.56Q14.76 5.56 14.76 5.77L14.76 5.77L14.76 5.77Q14.76 5.82 14.74 6.10L14.74 6.10L14.74 6.10Q14.73 6.38 14.73 6.62L14.73 6.62L14.73 7.06L16.51 7.06L16.46 7.84L14.73 7.84L14.73 7.84Q14.73 8.62 14.71 9.77L14.71 9.77L14.71 9.77Q14.69 10.92 14.69 11.30L14.69 11.30L14.69 11.30Q14.69 12.38 14.82 12.85L14.82 12.85L14.82 12.85Q14.95 13.33 15.34 13.33L15.34 13.33L15.34 13.33Q15.68 13.33 16.37 12.92L16.37 12.92L16.66 13.20L16.66 13.20Q15.58 14.32 14.90 14.32L14.90 14.32L14.90 14.32Q13.99 14.32 13.71 13.71L13.71 13.71L13.71 13.71Q13.43 13.09 13.43 11.48L13.43 11.48L13.43 11.48Q13.43 11.07 13.45 9.86L13.45 9.86L13.45 9.86Q13.47 8.65 13.47 7.84L13.47 7.84ZM17.36 12.42L17.36 12.42L17.36 12.42Q17.36 11.93 17.46 11.55L17.46 11.55L17.46 11.55Q17.56 11.17 17.78 10.92L17.78 10.92L17.78 10.92Q18.00 10.67 18.23 10.50L18.23 10.50L18.23 10.50Q18.45 10.33 18.87 10.21L18.87 10.21L18.87 10.21Q19.28 10.09 19.58 10.03L19.58 10.03L19.58 10.03Q19.88 9.97 20.43 9.86L20.43 9.86L20.43 9.86Q20.97 9.76 21.31 9.69L21.31 9.69L21.31 9.69Q21.31 9.49 21.32 9.20L21.32 9.20L21.32 9.20Q21.32 8.90 21.32 8.85L21.32 8.85L21.32 8.85Q21.32 8.20 20.86 7.92L20.86 7.92L20.86 7.92Q20.40 7.64 19.80 7.64L19.80 7.64L19.80 7.64Q19.10 7.64 18.84 7.97L18.84 7.97L18.84 7.97Q18.59 8.30 18.30 9.38L18.30 9.38L17.72 9.32L17.72 9.32Q17.72 9.28 17.73 9.04L17.73 9.04L17.73 9.04Q17.74 8.79 17.77 8.60L17.77 8.60L17.77 8.60Q17.81 8.41 17.89 8.12L17.89 8.12L17.89 8.12Q17.96 7.83 18.15 7.61L18.15 7.61L18.15 7.61Q18.34 7.39 18.62 7.18L18.62 7.18L18.62 7.18Q18.90 6.97 19.36 6.86L19.36 6.86L19.36 6.86Q19.82 6.75 20.43 6.75L20.43 6.75L20.43 6.75Q21.04 6.75 21.48 6.89L21.48 6.89L21.48 6.89Q21.91 7.03 22.13 7.20L22.13 7.20L22.13 7.20Q22.34 7.38 22.46 7.68L22.46 7.68L22.46 7.68Q22.58 7.98 22.60 8.16L22.60 8.16L22.60 8.16Q22.61 8.34 22.61 8.62L22.61 8.62L22.61 8.62Q22.61 9.69 22.58 10.90L22.58 10.90L22.58 10.90Q22.55 12.11 22.55 12.32L22.55 12.32L22.55 12.32Q22.55 12.67 22.87 13.17L22.87 13.17L22.87 13.17Q23.18 13.66 23.18 13.75L23.18 13.75L23.18 13.75Q23.18 13.82 23.06 13.86L23.06 13.86L23.06 13.86Q22.08 14.18 21.98 14.18L21.98 14.18L21.98 14.18Q21.84 14.18 21.72 13.98L21.72 13.98L21.72 13.98Q21.60 13.78 21.50 13.48L21.50 13.48L21.50 13.48Q21.41 13.19 21.39 13.17L21.39 13.17L21.39 13.17Q21.18 13.31 20.87 13.52L20.87 13.52L20.87 13.52Q20.57 13.73 20.45 13.81L20.45 13.81L20.45 13.81Q20.33 13.89 20.11 14L20.11 14L20.11 14Q19.89 14.11 19.73 14.15L19.73 14.15L19.73 14.15Q19.56 14.20 19.31 14.22L19.31 14.22L19.31 14.22Q19.05 14.25 18.73 14.25L18.73 14.25L18.73 14.25Q18.00 14.25 17.68 13.72L17.68 13.72L17.68 13.72Q17.36 13.19 17.36 12.42ZM18.62 12.28L18.62 12.28L18.62 12.28Q18.62 13.31 19.56 13.31L19.56 13.31L19.56 13.31Q20.38 13.31 21.22 12.61L21.22 12.61L21.22 12.61Q21.32 12.53 21.32 11.42L21.32 11.42L21.32 11.42Q21.32 10.65 21.31 10.23L21.31 10.23L21.31 10.23Q21.06 10.32 20.67 10.44L20.67 10.44L20.67 10.44Q20.29 10.57 20.13 10.63L20.13 10.63L20.13 10.63Q19.96 10.68 19.70 10.77L19.70 10.77L19.70 10.77Q19.43 10.86 19.34 10.92L19.34 10.92L19.34 10.92Q19.25 10.98 19.09 11.06L19.09 11.06L19.09 11.06Q18.93 11.14 18.89 11.22L18.89 11.22L18.89 11.22Q18.84 11.30 18.76 11.40L18.76 11.40L18.76 11.40Q18.68 11.51 18.66 11.64L18.66 11.64L18.66 11.64Q18.65 11.77 18.63 11.92L18.63 11.92L18.63 11.92Q18.62 12.07 18.62 12.28ZM30.52 14.11L27.22 14.11L27.22 13.64L27.22 13.64Q27.33 13.62 27.51 13.59L27.51 13.59L27.51 13.59Q27.69 13.55 27.75 13.54L27.75 13.54L27.75 13.54Q27.80 13.54 27.92 13.50L27.92 13.50L27.92 13.50Q28.04 13.45 28.07 13.43L28.07 13.43L28.07 13.43Q28.10 13.40 28.17 13.31L28.17 13.31L28.17 13.31Q28.24 13.23 28.25 13.15L28.25 13.15L28.25 13.15Q28.25 13.06 28.28 12.91L28.28 12.91L28.28 12.91Q28.31 12.77 28.31 12.60L28.31 12.60L28.31 12.60Q28.31 12.43 28.31 12.18L28.31 12.18L28.31 9.59L28.31 9.59Q28.31 8.15 28.27 4.98L28.27 4.98L28.25 4.31L28.25 4.31Q28.24 3.96 28.08 3.86L28.08 3.86L28.08 3.86Q27.93 3.77 27.47 3.77L27.47 3.77L27.29 3.77L27.26 3.30L27.26 3.30Q27.86 3.23 28.35 3.14L28.35 3.14L28.35 3.14Q28.84 3.05 29.07 3.00L29.07 3.00L29.07 3.00Q29.30 2.94 29.36 2.94L29.36 2.94L29.36 2.94Q29.60 2.94 29.60 3.15L29.60 3.15L29.60 3.15Q29.62 4.30 29.62 6.03L29.62 6.03L29.62 6.03Q29.62 7.74 29.55 9.70L29.55 9.70L29.55 9.70Q29.48 11.65 29.48 12.78L29.48 12.78L29.48 12.78Q29.48 13.31 29.64 13.43L29.64 13.43L29.64 13.43Q29.81 13.55 30.52 13.64L30.52 13.64L30.52 14.11ZM31.39 12.42L31.39 12.42L31.39 12.42Q31.39 11.93 31.49 11.55L31.49 11.55L31.49 11.55Q31.58 11.17 31.81 10.92L31.81 10.92L31.81 10.92Q32.03 10.67 32.26 10.50L32.26 10.50L32.26 10.50Q32.48 10.33 32.89 10.21L32.89 10.21L32.89 10.21Q33.31 10.09 33.61 10.03L33.61 10.03L33.61 10.03Q33.91 9.97 34.45 9.86L34.45 9.86L34.45 9.86Q35 9.76 35.34 9.69L35.34 9.69L35.34 9.69Q35.34 9.49 35.34 9.20L35.34 9.20L35.34 9.20Q35.35 8.90 35.35 8.85L35.35 8.85L35.35 8.85Q35.35 8.20 34.89 7.92L34.89 7.92L34.89 7.92Q34.43 7.64 33.82 7.64L33.82 7.64L33.82 7.64Q33.12 7.64 32.87 7.97L32.87 7.97L32.87 7.97Q32.62 8.30 32.33 9.38L32.33 9.38L31.75 9.32L31.75 9.32Q31.75 9.28 31.76 9.04L31.76 9.04L31.76 9.04Q31.77 8.79 31.80 8.60L31.80 8.60L31.80 8.60Q31.84 8.41 31.91 8.12L31.91 8.12L31.91 8.12Q31.99 7.83 32.18 7.61L32.18 7.61L32.18 7.61Q32.37 7.39 32.65 7.18L32.65 7.18L32.65 7.18Q32.93 6.97 33.39 6.86L33.39 6.86L33.39 6.86Q33.85 6.75 34.45 6.75L34.45 6.75L34.45 6.75Q35.07 6.75 35.50 6.89L35.50 6.89L35.50 6.89Q35.94 7.03 36.16 7.20L36.16 7.20L36.16 7.20Q36.37 7.38 36.49 7.68L36.49 7.68L36.49 7.68Q36.61 7.98 36.62 8.16L36.62 8.16L36.62 8.16Q36.64 8.34 36.64 8.62L36.64 8.62L36.64 8.62Q36.64 9.69 36.61 10.90L36.61 10.90L36.61 10.90Q36.58 12.11 36.58 12.32L36.58 12.32L36.58 12.32Q36.58 12.67 36.90 13.17L36.90 13.17L36.90 13.17Q37.21 13.66 37.21 13.75L37.21 13.75L37.21 13.75Q37.21 13.82 37.09 13.86L37.09 13.86L37.09 13.86Q36.11 14.18 36.01 14.18L36.01 14.18L36.01 14.18Q35.87 14.18 35.75 13.98L35.75 13.98L35.75 13.98Q35.63 13.78 35.53 13.48L35.53 13.48L35.53 13.48Q35.43 13.19 35.42 13.17L35.42 13.17L35.42 13.17Q35.21 13.31 34.90 13.52L34.90 13.52L34.90 13.52Q34.59 13.73 34.48 13.81L34.48 13.81L34.48 13.81Q34.36 13.89 34.14 14L34.14 14L34.14 14Q33.92 14.11 33.75 14.15L33.75 14.15L33.75 14.15Q33.59 14.20 33.33 14.22L33.33 14.22L33.33 14.22Q33.08 14.25 32.76 14.25L32.76 14.25L32.76 14.25Q32.03 14.25 31.71 13.72L31.71 13.72L31.71 13.72Q31.39 13.19 31.39 12.42ZM32.65 12.28L32.65 12.28L32.65 12.28Q32.65 13.31 33.59 13.31L33.59 13.31L33.59 13.31Q34.41 13.31 35.25 12.61L35.25 12.61L35.25 12.61Q35.35 12.53 35.35 11.42L35.35 11.42L35.35 11.42Q35.35 10.65 35.34 10.23L35.34 10.23L35.34 10.23Q35.08 10.32 34.70 10.44L34.70 10.44L34.70 10.44Q34.31 10.57 34.15 10.63L34.15 10.63L34.15 10.63Q33.99 10.68 33.73 10.77L33.73 10.77L33.73 10.77Q33.46 10.86 33.37 10.92L33.37 10.92L33.37 10.92Q33.28 10.98 33.12 11.06L33.12 11.06L33.12 11.06Q32.96 11.14 32.91 11.22L32.91 11.22L32.91 11.22Q32.87 11.30 32.79 11.40L32.79 11.40L32.79 11.40Q32.70 11.51 32.69 11.64L32.69 11.64L32.69 11.64Q32.68 11.77 32.66 11.92L32.66 11.92L32.66 11.92Q32.65 12.07 32.65 12.28ZM40.91 7.56L40.88 7.10L40.88 7.10Q41.43 7.03 41.89 6.93L41.89 6.93L41.89 6.93Q42.36 6.83 42.59 6.77L42.59 6.77L42.59 6.77Q42.83 6.71 42.88 6.71L42.88 6.71L42.88 6.71Q43.12 6.71 43.12 6.92L43.12 6.92L43.12 6.92Q43.12 7.11 43.48 8.55L43.48 8.55L43.48 8.55Q43.85 9.98 44.21 11.31L44.21 11.31L44.59 12.64L44.59 12.64Q46.07 8.72 46.07 7.87L46.07 7.87L46.07 7.87Q46.07 7.66 46.00 7.57L46.00 7.57L46.00 7.57Q45.92 7.49 45.82 7.49L45.82 7.49L45.82 7.49Q45.72 7.49 45.65 7.43L45.65 7.43L45.65 7.43Q45.57 7.36 45.57 7.21L45.57 7.21L45.57 7.21Q45.57 6.96 46.05 6.96L46.05 6.96L46.05 6.96Q46.17 6.96 46.37 6.97L46.37 6.97L46.37 6.97Q46.58 6.99 46.65 6.99L46.65 6.99L46.65 6.99Q46.89 6.99 47.18 6.96L47.18 6.96L47.18 6.96Q47.47 6.93 47.57 6.93L47.57 6.93L47.57 6.93Q47.77 6.93 47.77 7.14L47.77 7.14L47.77 7.14Q47.77 7.18 47.75 7.22L47.75 7.22L47.75 7.22Q47.73 7.25 47.68 7.34L47.68 7.34L47.68 7.34Q47.63 7.42 47.55 7.54L47.55 7.54L47.55 7.54Q47.47 7.66 47.34 7.92L47.34 7.92L47.34 7.92Q47.21 8.18 47.04 8.52L47.04 8.52L47.04 8.52Q46.87 8.86 46.62 9.44L46.62 9.44L46.62 9.44Q46.37 10.02 46.09 10.74L46.09 10.74L46.09 10.74Q45.88 11.24 45.69 11.73L45.69 11.73L45.69 11.73Q45.50 12.22 45.39 12.53L45.39 12.53L45.39 12.53Q45.28 12.84 45.16 13.14L45.16 13.14L45.16 13.14Q45.05 13.44 44.99 13.60L44.99 13.60L44.99 13.60Q44.93 13.76 44.85 13.92L44.85 13.92L44.85 13.92Q44.77 14.07 44.73 14.13L44.73 14.13L44.73 14.13Q44.69 14.20 44.60 14.25L44.60 14.25L44.60 14.25Q44.52 14.29 44.45 14.31L44.45 14.31L44.45 14.31Q44.38 14.32 44.25 14.32L44.25 14.32L44.25 14.32Q43.93 14.32 43.80 14.08L43.80 14.08L43.80 14.08Q43.67 13.83 43.34 12.74L43.34 12.74L43.34 12.74Q43.18 12.17 43.06 11.80L43.06 11.80L43.06 11.80Q42.94 11.40 42.72 10.62L42.72 10.62L42.72 10.62Q42.50 9.84 42.37 9.39L42.37 9.39L42.37 9.39Q42.24 8.93 42.05 8.46L42.05 8.46L42.05 8.46Q41.86 7.99 41.71 7.81L41.71 7.81L41.71 7.81Q41.65 7.74 41.59 7.70L41.59 7.70L41.59 7.70Q41.52 7.66 41.43 7.63L41.43 7.63L41.43 7.63Q41.34 7.60 41.29 7.59L41.29 7.59L41.29 7.59Q41.24 7.59 41.10 7.58L41.10 7.58L41.10 7.58Q40.96 7.57 40.91 7.56L40.91 7.56ZM49.01 4.80L49.01 4.80L49.01 4.80Q49.01 4.63 49.24 4.21L49.24 4.21L49.24 4.21Q49.48 3.79 49.77 3.79L49.77 3.79L49.77 3.79Q49.98 3.79 50.29 4.05L50.29 4.05L50.29 4.05Q50.60 4.31 50.60 4.65L50.60 4.65L50.60 4.65Q50.60 4.98 50.31 5.31L50.31 5.31L50.31 5.31Q50.02 5.64 49.77 5.64L49.77 5.64L49.77 5.64Q49.57 5.64 49.29 5.30L49.29 5.30L49.29 5.30Q49.01 4.96 49.01 4.80ZM51.44 14.11L48.19 14.11L48.19 13.64L48.19 13.64Q48.90 13.58 49.08 13.45L49.08 13.45L49.08 13.45Q49.27 13.31 49.27 12.89L49.27 12.89L49.27 9.98L49.27 9.98Q49.27 8.76 49.20 8.29L49.20 8.29L49.20 8.29Q49.14 7.81 49.00 7.68L49.00 7.68L49.00 7.68Q48.86 7.55 48.47 7.55L48.47 7.55L48.26 7.55L48.23 7.08L48.23 7.08Q48.83 7.03 49.32 6.94L49.32 6.94L49.32 6.94Q49.81 6.86 50.05 6.80L50.05 6.80L50.05 6.80Q50.29 6.75 50.33 6.75L50.33 6.75L50.33 6.75Q50.57 6.75 50.57 6.97L50.57 6.97L50.57 6.97Q50.57 7.14 50.55 7.89L50.55 7.89L50.55 7.89Q50.54 8.64 50.52 10.01L50.52 10.01L50.52 10.01Q50.50 11.38 50.50 13.06L50.50 13.06L50.50 13.06Q50.50 13.34 50.72 13.47L50.72 13.47L50.72 13.47Q50.95 13.61 51.44 13.64L51.44 13.64L51.44 14.11ZM52.35 9.10L52.35 9.10L52.35 9.10Q52.35 8.43 52.58 8.06L52.58 8.06L52.58 8.06Q53.09 7.25 53.54 7.01L53.54 7.01L53.54 7.01Q53.98 6.76 54.87 6.76L54.87 6.76L54.87 6.76Q55.38 6.76 55.94 7L55.94 7L55.94 7Q56.10 7.06 56.17 7.10L56.17 7.10L56.17 7.10Q56.25 7.15 56.34 7.30L56.34 7.30L56.34 7.30Q56.42 7.45 56.42 7.69L56.42 7.69L56.42 7.69Q56.42 7.73 56.41 7.90L56.41 7.90L56.41 7.90Q56.39 8.08 56.38 8.39L56.38 8.39L56.38 8.39Q56.38 8.69 56.38 9.06L56.38 9.06L55.86 9.06L55.86 9.06Q55.85 8.88 55.74 8.53L55.74 8.53L55.74 8.53Q55.64 8.18 55.51 7.99L55.51 7.99L55.51 7.99Q55.23 7.59 54.46 7.59L54.46 7.59L54.46 7.59Q54.08 7.59 53.83 7.69L53.83 7.69L53.83 7.69Q53.58 7.80 53.47 7.96L53.47 7.96L53.47 7.96Q53.37 8.12 53.33 8.25L53.33 8.25L53.33 8.25Q53.28 8.39 53.28 8.51L53.28 8.51L53.28 8.51Q53.28 8.96 53.63 9.23L53.63 9.23L53.63 9.23Q53.98 9.51 54.49 9.67L54.49 9.67L54.49 9.67Q54.99 9.84 55.50 10.04L55.50 10.04L55.50 10.04Q56.01 10.25 56.36 10.72L56.36 10.72L56.36 10.72Q56.71 11.19 56.71 11.90L56.71 11.90L56.71 11.90Q56.71 12.64 56.50 12.99L56.50 12.99L56.50 12.99Q56.13 13.59 55.61 14L55.61 14L55.61 14Q55.40 14.15 54.95 14.25L54.95 14.25L54.95 14.25Q54.50 14.35 54.28 14.35L54.28 14.35L54.28 14.35Q52.78 14.35 52.49 13.85L52.49 13.85L52.49 13.85Q52.37 13.66 52.37 13.37L52.37 13.37L52.37 13.37Q52.37 12.24 52.44 11.98L52.44 11.98L52.44 11.98Q52.50 11.72 52.75 11.72L52.75 11.72L52.75 11.72Q52.96 11.72 53.02 11.91L53.02 11.91L53.02 11.91Q53.07 12.11 53.12 12.45L53.12 12.45L53.12 12.45Q53.17 12.80 53.33 13.01L53.33 13.01L53.33 13.01Q53.65 13.45 54.49 13.45L54.49 13.45L54.49 13.45Q55.10 13.45 55.45 13.17L55.45 13.17L55.45 13.17Q55.80 12.89 55.80 12.40L55.80 12.40L55.80 12.40Q55.80 11.93 55.45 11.65L55.45 11.65L55.45 11.65Q55.09 11.37 54.58 11.21L54.58 11.21L54.58 11.21Q54.07 11.05 53.56 10.86L53.56 10.86L53.56 10.86Q53.06 10.67 52.70 10.23L52.70 10.23L52.70 10.23Q52.35 9.80 52.35 9.10ZM57.69 12.42L57.69 12.42L57.69 12.42Q57.69 11.93 57.79 11.55L57.79 11.55L57.79 11.55Q57.89 11.17 58.11 10.92L58.11 10.92L58.11 10.92Q58.34 10.67 58.56 10.50L58.56 10.50L58.56 10.50Q58.79 10.33 59.20 10.21L59.20 10.21L59.20 10.21Q59.61 10.09 59.91 10.03L59.91 10.03L59.91 10.03Q60.21 9.97 60.76 9.86L60.76 9.86L60.76 9.86Q61.31 9.76 61.64 9.69L61.64 9.69L61.64 9.69Q61.64 9.49 61.65 9.20L61.65 9.20L61.65 9.20Q61.66 8.90 61.66 8.85L61.66 8.85L61.66 8.85Q61.66 8.20 61.19 7.92L61.19 7.92L61.19 7.92Q60.73 7.64 60.13 7.64L60.13 7.64L60.13 7.64Q59.43 7.64 59.18 7.97L59.18 7.97L59.18 7.97Q58.93 8.30 58.63 9.38L58.63 9.38L58.06 9.32L58.06 9.32Q58.06 9.28 58.06 9.04L58.06 9.04L58.06 9.04Q58.07 8.79 58.11 8.60L58.11 8.60L58.11 8.60Q58.14 8.41 58.22 8.12L58.22 8.12L58.22 8.12Q58.30 7.83 58.48 7.61L58.48 7.61L58.48 7.61Q58.67 7.39 58.95 7.18L58.95 7.18L58.95 7.18Q59.23 6.97 59.70 6.86L59.70 6.86L59.70 6.86Q60.16 6.75 60.76 6.75L60.76 6.75L60.76 6.75Q61.38 6.75 61.81 6.89L61.81 6.89L61.81 6.89Q62.24 7.03 62.46 7.20L62.46 7.20L62.46 7.20Q62.68 7.38 62.80 7.68L62.80 7.68L62.80 7.68Q62.92 7.98 62.93 8.16L62.93 8.16L62.93 8.16Q62.94 8.34 62.94 8.62L62.94 8.62L62.94 8.62Q62.94 9.69 62.92 10.90L62.92 10.90L62.92 10.90Q62.89 12.11 62.89 12.32L62.89 12.32L62.89 12.32Q62.89 12.67 63.20 13.17L63.20 13.17L63.20 13.17Q63.52 13.66 63.52 13.75L63.52 13.75L63.52 13.75Q63.52 13.82 63.39 13.86L63.39 13.86L63.39 13.86Q62.41 14.18 62.31 14.18L62.31 14.18L62.31 14.18Q62.17 14.18 62.05 13.98L62.05 13.98L62.05 13.98Q61.94 13.78 61.84 13.48L61.84 13.48L61.84 13.48Q61.74 13.19 61.73 13.17L61.73 13.17L61.73 13.17Q61.52 13.31 61.21 13.52L61.21 13.52L61.21 13.52Q60.90 13.73 60.78 13.81L60.78 13.81L60.78 13.81Q60.66 13.89 60.44 14L60.44 14L60.44 14Q60.23 14.11 60.06 14.15L60.06 14.15L60.06 14.15Q59.89 14.20 59.64 14.22L59.64 14.22L59.64 14.22Q59.39 14.25 59.07 14.25L59.07 14.25L59.07 14.25Q58.34 14.25 58.02 13.72L58.02 13.72L58.02 13.72Q57.69 13.19 57.69 12.42ZM58.95 12.28L58.95 12.28L58.95 12.28Q58.95 13.31 59.89 13.31L59.89 13.31L59.89 13.31Q60.72 13.31 61.56 12.61L61.56 12.61L61.56 12.61Q61.66 12.53 61.66 11.42L61.66 11.42L61.66 11.42Q61.66 10.65 61.64 10.23L61.64 10.23L61.64 10.23Q61.39 10.32 61.00 10.44L61.00 10.44L61.00 10.44Q60.62 10.57 60.46 10.63L60.46 10.63L60.46 10.63Q60.30 10.68 60.03 10.77L60.03 10.77L60.03 10.77Q59.77 10.86 59.67 10.92L59.67 10.92L59.67 10.92Q59.58 10.98 59.42 11.06L59.42 11.06L59.42 11.06Q59.26 11.14 59.22 11.22L59.22 11.22L59.22 11.22Q59.18 11.30 59.09 11.40L59.09 11.40L59.09 11.40Q59.01 11.51 59.00 11.64L59.00 11.64L59.00 11.64Q58.98 11.77 58.97 11.92L58.97 11.92L58.97 11.92Q58.95 12.07 58.95 12.28Z"></path></g><linearGradient data-v-d3f97b9e="" gradientTransform="rotate(25)" id="560b3158-3034-4f74-bbbe-162e311ecf33" x1="0%" y1="0%" x2="100%" y2="0%"><stop data-v-d3f97b9e="" offset="0%" style="stop-color: rgb(40, 139, 88); stop-opacity: 1;"></stop><stop data-v-d3f97b9e="" offset="100%" style="stop-color: rgb(21, 34, 241); stop-opacity: 1;"></stop></linearGradient><g data-v-d3f97b9e="" id="946cb29d-2a61-4d88-b403-f99f1d066759" transform="matrix(1.1068236827850342,0,0,1.1068236827850342,0.6596983075141907,-0.00002691047848202288)" stroke="none" fill="url(#560b3158-3034-4f74-bbbe-162e311ecf33)"><path d="M39.74 2.399l-.255-1.1a51.587 51.587 0 0 1 4.49-.83l.158 1.121a51.095 51.095 0 0 0-4.393.809zM61.917 2.333a46.559 46.559 0 0 0-4.403-.777l.15-1.122c1.515.195 3.027.464 4.497.795l-.244 1.104zM48.589 1.184L48.536.055a53.235 53.235 0 0 1 4.572-.011l-.042 1.132a50.636 50.636 0 0 0-4.477.008zM7.252 77.205a51.258 51.258 0 0 0 2.525 3.809l.914-.669a49.315 49.315 0 0 1-2.473-3.722l-.966.582zM3.267 68.983a49.538 49.538 0 0 0 1.806 4.199l1.015-.493a50.795 50.795 0 0 1-1.766-4.102l-1.055.396zM.826 60.179a51.192 51.192 0 0 0 1.022 4.455l1.09-.301a50.402 50.402 0 0 1-1-4.358l-1.112.204zM1.13 51.082H0c.002 1.518.073 3.054.21 4.569l1.125-.102a49.853 49.853 0 0 1-.205-4.467zM1.906 42.183l-1.113-.2a52.31 52.31 0 0 0-.6 4.535l1.125.096c.131-1.485.327-2.977.588-4.431zM4.255 33.562l-1.059-.393a51.593 51.593 0 0 0-1.402 4.349l1.091.299c.389-1.419.851-2.85 1.37-4.255zM8.117 25.509l-.972-.577a50.712 50.712 0 0 0-2.16 4.031l1.019.485a50.121 50.121 0 0 1 2.113-3.939zM9.661 21.114l.915.662a50.574 50.574 0 0 1 2.782-3.5l-.853-.743a50.174 50.174 0 0 0-2.844 3.581zM19.088 11.207a51.395 51.395 0 0 0-3.433 3.01l.782.821a48.73 48.73 0 0 1 3.357-2.949l-.706-.882zM86.074 14.006a52.56 52.56 0 0 0-3.447-2.998l-.707.888a49.61 49.61 0 0 1 3.379 2.93l.775-.82zM27.234 7.137l-.54-.989a50.043 50.043 0 0 0-3.916 2.357l.628.936a51.086 51.086 0 0 1 3.828-2.304zM78.917 8.329a50.488 50.488 0 0 0-3.935-2.336l-.528.997c1.31.7 2.605 1.47 3.846 2.282l.617-.943zM35.434 3.599l-.354-1.072a49.908 49.908 0 0 0-4.272 1.621l.446 1.038a50.952 50.952 0 0 1 4.18-1.587zM70.862 4.023a52.782 52.782 0 0 0-4.288-1.593l-.345 1.077c1.423.455 2.831.981 4.191 1.559l.442-1.043zM99.129 26.774l-2.716-2.711 1.117-9.237-1.241-1.23-3.197 7.139-1.85-1.846a1.516 1.516 0 0 0-.609-.361l.624-3.083-.992-.993-1.476 3.457-3.455 1.474.989.994 3.087-.624c.075.229.199.446.362.61l1.85 1.85-7.144 3.201 1.227 1.236 9.245-1.112 2.707 2.711a2.92 2.92 0 0 0 1.873.867.481.481 0 0 0 .339-.124.45.45 0 0 0 .129-.335 2.948 2.948 0 0 0-.869-1.883zM51.09 15.112c-18.253 0-33.101 14.848-33.101 33.101 0 18.251 14.848 33.101 33.101 33.101 18.251 0 33.101-14.85 33.101-33.101 0-18.253-14.85-33.101-33.101-33.101zm26.983 38.497c.601.607.87 1.167.991 1.774-3.197 12.465-14.527 21.706-27.974 21.706a28.703 28.703 0 0 1-13.759-3.494c.041-.179.081-.361.121-.555.244-1.177 2.063-1.742 2.844-2.521.761-.762 2.275-1.223 2.745-2.219.308-.653-.128-1.49.134-2.099.199-.458.958-.957 1.314-1.314.894-.894 1.564-3.22 1.564-4.442h-4.012c-1.267 0-1.021-1.498-1.026-2.429-.001-.5.031-1.111-.212-1.568-.277-.52-1.174-.368-1.655-.612-.837-.425-1.531-1.257-1.695-2.192-.108-.613-.086-1.062-.857-1.032-.758.032-1.462.639-2.167.639h-8.524c0 .317-.18 1.349.109 1.494.723.36 1.445.722 2.167 1.083 1.078.54 1.394 1.889 1.921 2.941.518 1.036 1.105 2.054 1.559 3.116.562 1.314.97 2.777 1.993 3.833.431.445 1.267.354 1.45.967.232.77-.007 1.71-.184 2.468-.196.839-.442 1.668-.659 2.502-5.966-4.296-10.229-10.807-11.581-18.319.402-.031.805-.085 1.039-.085.78 0 .804-.058 1.369-.621.495-.495.817-.642.817-1.324v-2.372c.96.479 1.918.96 2.878 1.438.042-1.163.873-1.312 1.831-1.473 1.138-.188 1.887-1.405 2.941-1.405.869 0 1.23.166 2.046.43.428.141.965.304 1.412.165.601-.188.459-1.261.667-1.743.299-.697.754-1.683 1.56-1.75.876-.07 2.012-.465 1.056-1.419-1.049-1.049-1.833-2.387-2.542-3.68-.303-.555-.379-1.43-.89-1.813-1.116-.838-2.792.298-3.63 1.05-.471.425.268 1.402-.379 1.675-1.052.446-2.425.804-3.511.285-.592-.283-.958-.977-1.63-1.101-.464-.084-.37-.214-.37-.734v-2.631c0-.364.101-.221.432-.316 1.303-.374.534-2.07 1.825-2.091 1.497-.025.019-2.576-.386-3.096-.227-.292-.453-.423-.7-.482C33.81 23.605 41.959 19.34 51.091 19.34c8.311 0 15.809 3.534 21.082 9.173-1.552 1.686-3.22 3.605-4.354 4.456-.778.583-1.786.937-2.655 1.371-.867.435-2.043.202-2.993.202-.247 0-3.165-.04-3.165.036 0 .865.433 2.625-.402 3.044-.997.498-2.116.878-2.909 1.669-.225.225-1.146.867-.881 1.133l.004.003a.889.889 0 0 0-.449-.123c-1.129.038-2.53.086-3.514.708-.624.394-.455.99-.538 1.645-.094.736-.325 1.515-.854 2.06-.632.652-.531.759-.531 1.817 1.119-.124 2.24-.249 3.362-.372.132-.018.955-.022.955-.169 0-.278-.157-1.22.034-1.411l1.28-1.28c.259-.259.73.48.942.693.39.389.771.472.357.882-.391.394-.784.787-1.175 1.178.174 0 1.437.047 1.44-.033.051-1.074.701-2.108 1.438-2.845.796-.796 1.887-.805 2.745-.117.347.28.134 1.179.134 1.556 0 .253-.07 2.878.062 2.878.633 0 1.185.146 1.67-.265 1.667-1.403 3.848-1.067 5.464-2.613l1.439 2.878c-1.143.382-2.287.762-3.43 1.143-.09.029-.862.346-.902.269-.261-.513-.539-1.039-.894-1.495-.472-.607-.59-.08-.497.478.151.922.736 1.785 1.371 2.451.666.698 1.039 2.043 1.473 2.912-.09-1.769 2.485 1.045 2.879 1.438l1.827-1.826.905-.905c.244-.245-.028-.315-.216-.579-1.016-1.42 1.593-1.007 2.386-1.007 1.498 0 2.637.391 3.732 1.439-1.391-.072.04 1.475.36 1.797z"></path><path d="M52.289 37.419c-.318.32-.64.639-.958.96-.328.12-.87.143-.89.521-.024.467-.045.931-.07 1.398l1.88-.939c.2-.101.038-1.662.038-1.94zM55.143 35.98c.357 0 .984.2.984-.225v-.027c.069.137.193.223.386.241-.115.484-.241.968-.386 1.451l1.313-1.314c.294-.294.125-1.03.125-1.42v-.206-2.817a7.427 7.427 0 0 1-.132.248c-.018-.203-.027-.402-.048-.607l-.167 1.006c-.368.688-.897 1.733-1.092 2.534v-.363-2.817c-.29.58-2.514 4.316-.983 4.316zM68.034 58.973c.94-.157 1.805-.756 2.485-1.405l-3.199-1.066c-1.194-.398-1.197-.527-1.775-1.686-.453-.909-.766-1.549-1.471-2.254-.515-.515-2.19-1.66-2.19-2.415 0-1.149.223-1.214-.853-1.214h-10.66c-.87.882-1.714 1.841-2.353 2.906-1.137 1.895.285 2.842 1.53 4.205 1.332 1.457.816 3.931 3.308 4.368.889.154 1.894.033 2.794.033.107 0 2.08-.278 1.89-.624.209.375.094 1.417.168 1.872.169 1.021.39 2.035.616 3.044.267 1.203.683 2.39.683 3.624 0 1.269 1.321 2.04 2.189 2.909.33.33.519.688.988.688h2.438c.404 0-.35-4.992.929-5.623.365-.18 1.087.021 1.303-.396.149-.283-.014-.631.135-.913.358-.69 1.203-.016 1.285-1.152.064-.922-.099-2.825-.749-3.555-.791-.888-.545-1.169.509-1.346zM46.035 28.767a18.118 18.118 0 0 0-2.367-1.996c-1.143-.794-2.004-.865-3.372-.865-.654 0-1.321-.045-1.973.008-.281.023-.172.337-.253.545-.491 1.256-2.532 2.765-3.531 3.764 1.382 0 2.153 2.867 2.677 3.915.315.629.202 1.283.202 1.986 0 1.029-.089 1.207.622 1.918.706.706.646.989 1.343.292l2.101-2.101c.46-.462.251-1.21.251-1.836 0-.924-.328-1.295.607-1.295.718 0 1.392.064 1.97-.432.438-.378.779-.854 1.381-.973.668-.132 2.08-.371 1.798-1.474-.114-.447-1.114-1.118-1.456-1.456z"></path></g><!----></svg>